<?xml version="1.0" encoding="utf-8"?>
<!-- Generator: Adobe Illustrator 25.2.1, SVG Export Plug-In . SVG Version: 6.00 Build 0)  -->
<!DOCTYPE svg PUBLIC "-//W3C//DTD SVG 1.0//EN" "http://www.w3.org/TR/2001/REC-SVG-20010904/DTD/svg10.dtd" [
	<!ENTITY ns_extend "http://ns.adobe.com/Extensibility/1.0/">
	<!ENTITY ns_ai "http://ns.adobe.com/AdobeIllustrator/10.0/">
	<!ENTITY ns_graphs "http://ns.adobe.com/Graphs/1.0/">
	<!ENTITY ns_vars "http://ns.adobe.com/Variables/1.0/">
	<!ENTITY ns_imrep "http://ns.adobe.com/ImageReplacement/1.0/">
	<!ENTITY ns_sfw "http://ns.adobe.com/SaveForWeb/1.0/">
	<!ENTITY ns_custom "http://ns.adobe.com/GenericCustomNamespace/1.0/">
	<!ENTITY ns_adobe_xpath "http://ns.adobe.com/XPath/1.0/">
]>
<svg version="1.0" id="Layer_1" xmlns:x="&ns_extend;" xmlns:i="&ns_ai;" xmlns:graph="&ns_graphs;"
	 xmlns="http://www.w3.org/2000/svg" xmlns:xlink="http://www.w3.org/1999/xlink" x="0px" y="0px" viewBox="0 0 142 69"
	 style="enable-background:new 0 0 142 69;" xml:space="preserve">
<style type="text/css">
	.Drop_x0020_Shadow{fill:none;}
	.Round_x0020_Corners_x0020_2_x0020_pt{fill:#FFFFFF;stroke:#231F20;stroke-miterlimit:10;}
	.Live_x0020_Reflect_x0020_X{fill:none;}
	.Bevel_x0020_Soft{fill:url(#SVGID_1_);}
	.Dusk{fill:#FFFFFF;}
	.Foliage_GS{fill:#FFDD00;}
	.Pompadour_GS{fill-rule:evenodd;clip-rule:evenodd;fill:#44ADE2;}
	.st0{fill:#FFFFFF;}
	.st1{fill:#CD2139;}
</style>
<metadata>
	<sfw  xmlns="&ns_sfw;">
		<slices></slices>
		<sliceSourceBounds  bottomLeftOrigin="true" height="16383" width="139" x="1.9" y="-8226"></sliceSourceBounds>
	</sfw>
</metadata>
<linearGradient id="SVGID_1_" gradientUnits="userSpaceOnUse" x1="0" y1="0" x2="0.7071" y2="0.7071">
	<stop  offset="0" style="stop-color:#DEDFE3"/>
	<stop  offset="0.1783" style="stop-color:#DADBDF"/>
	<stop  offset="0.3611" style="stop-color:#CECFD3"/>
	<stop  offset="0.546" style="stop-color:#B9BCBF"/>
	<stop  offset="0.7324" style="stop-color:#9CA0A2"/>
	<stop  offset="0.9181" style="stop-color:#787D7E"/>
	<stop  offset="1" style="stop-color:#656B6C"/>
</linearGradient>
<g>
	<path class="st0" d="M18.7,18.5c0,1.1-0.2,2.2-0.6,3c-0.4,0.9-1,1.6-1.7,2.3c-0.7,0.6-1.6,1.1-2.5,1.4c-1,0.3-2,0.5-3.1,0.5H2V2.5
		h7.8c0.9,0,1.8,0.1,2.6,0.4c0.8,0.3,1.6,0.7,2.2,1.2C15.2,4.6,15.7,5.3,16,6c0.4,0.8,0.5,1.6,0.5,2.6c0,0.3,0,0.7-0.1,1.1
		c-0.1,0.4-0.2,0.8-0.4,1.1c-0.2,0.4-0.4,0.7-0.6,1c-0.2,0.3-0.5,0.5-0.8,0.7c0.5,0.1,1,0.4,1.5,0.8c0.5,0.4,0.9,0.8,1.3,1.4
		c0.4,0.5,0.7,1.1,0.9,1.8C18.6,17.1,18.7,17.7,18.7,18.5z M11.5,9c0-0.8-0.3-1.5-0.8-1.8c-0.5-0.4-1.1-0.5-1.8-0.5H7.1v4.7h1.8
		c0.7,0,1.2-0.2,1.8-0.5C11.2,10.4,11.5,9.8,11.5,9z M13.2,18.5c0-1-0.4-1.8-1.1-2.3c-0.7-0.5-1.5-0.7-2.4-0.7H7.1v6h2.7
		c0.4,0,0.9-0.1,1.3-0.2c0.4-0.1,0.8-0.3,1.1-0.5c0.3-0.2,0.6-0.6,0.8-0.9C13.1,19.4,13.2,19,13.2,18.5z"/>
	<path class="st0" d="M21.8,25.6V2.5h13.5v4.6h-7.9v4.6h6.4v4.7h-6.4V21h8.9v4.6H21.8z"/>
	<path class="st0" d="M54.3,18.9c0,2.2-0.7,4-2.2,5.3c-1.5,1.3-3.6,2-6.5,2c-1.5,0-2.8-0.2-4-0.5c-1.2-0.3-2.2-0.8-3.1-1.4L38.1,19
		c2.2,1.8,4.7,2.6,7.3,2.6c1,0,1.8-0.2,2.4-0.6c0.6-0.4,0.8-0.9,0.8-1.6c0-0.7-0.3-1.2-0.8-1.6c-0.5-0.4-1.5-0.9-2.9-1.4
		c-2-0.7-3.6-1.6-4.6-2.9c-1-1.2-1.6-2.6-1.6-4.2c0-0.9,0.2-1.8,0.5-2.7c0.4-0.8,0.9-1.6,1.6-2.2c0.7-0.6,1.5-1.1,2.5-1.5
		c1-0.4,2.1-0.5,3.4-0.5c1.5,0,2.6,0.1,3.5,0.4c0.9,0.3,1.6,0.6,2.1,0.9l-0.4,4.6c-0.6-0.3-1.3-0.7-2.1-1C49.1,7.1,48.2,7,47.3,7
		c-1,0-1.8,0.2-2.2,0.6c-0.5,0.4-0.7,0.8-0.7,1.4c0,0.5,0.2,1,0.7,1.4c0.5,0.4,1.4,0.8,2.8,1.2c0.9,0.3,1.8,0.7,2.6,1.2
		c0.8,0.5,1.5,1,2,1.6c0.6,0.6,1,1.3,1.3,2.1C54.1,17.2,54.3,18,54.3,18.9z"/>
	<path class="st0" d="M68.3,7v18.7h-5.6V6.9h-7V2.5h19.6V7H68.3z"/>
</g>
<g>
	<g>
		<path class="st0" d="M7.6,33.3v4.6h6.8v4.7H7.6v9.8H2V28.7h13.8v4.6H7.6z"/>
		<path class="st0" d="M45.3,40.2c0,1.9-0.4,3.6-1.1,5.1c-0.7,1.5-1.6,2.8-2.8,3.8s-2.5,1.9-4,2.4c-1.5,0.6-3.1,0.9-4.7,0.9
			s-3.2-0.3-4.7-0.9c-1.5-0.6-2.8-1.4-4-2.4c-1.2-1.1-2.1-2.3-2.8-3.8c-0.7-1.5-1.1-3.2-1.1-5.1c0-1.8,0.4-3.5,1.1-5
			c0.7-1.5,1.6-2.8,2.8-3.8c1.2-1,2.5-1.8,4-2.4c1.5-0.6,3.1-0.9,4.7-0.9s3.1,0.3,4.7,0.9c1.5,0.6,2.8,1.4,4,2.4
			c1.2,1,2.1,2.3,2.8,3.8C44.9,36.7,45.3,38.4,45.3,40.2z M39.5,40.2c0-1.1-0.2-2.1-0.6-2.9c-0.4-0.9-0.9-1.6-1.5-2.3
			c-0.6-0.6-1.4-1.1-2.2-1.5c-0.8-0.3-1.7-0.5-2.5-0.5c-0.9,0-1.7,0.2-2.5,0.5c-0.8,0.3-1.5,0.8-2.2,1.5c-0.6,0.6-1.1,1.4-1.5,2.3
			c-0.4,0.9-0.6,1.9-0.6,2.9s0.2,2.1,0.6,3c0.4,0.9,0.9,1.6,1.5,2.3c0.6,0.6,1.4,1.1,2.2,1.5c0.8,0.3,1.7,0.5,2.5,0.5
			c0.9,0,1.7-0.2,2.5-0.5c0.8-0.3,1.5-0.8,2.2-1.5c0.6-0.6,1.2-1.4,1.5-2.3C39.4,42.3,39.5,41.3,39.5,40.2z"/>
		<path class="st0" d="M65.2,52.3l-6.6-9.6h-2v9.6h-5.4V28.7h8.7c1,0,1.9,0.2,2.8,0.5c0.9,0.3,1.7,0.8,2.4,1.4
			c0.7,0.6,1.2,1.3,1.7,2.2c0.4,0.9,0.6,1.9,0.6,2.9c0,1.4-0.3,2.6-1,3.6c-0.7,1-1.5,1.8-2.5,2.2l7.7,10.8H65.2z M61.9,35.7
			c0-0.9-0.3-1.5-0.9-1.9c-0.6-0.4-1.3-0.6-2-0.6h-2.4v5.2H59c0.7,0,1.4-0.2,2-0.6C61.6,37.3,61.9,36.6,61.9,35.7z"/>
	</g>
</g>
<g>
	<g>
		<path class="st0" d="M117.6,40.2c0,1.9-0.4,3.6-1.1,5.1c-0.7,1.5-1.6,2.8-2.8,3.8c-1.2,1.1-2.5,1.9-4,2.4
			c-1.5,0.6-3.1,0.9-4.7,0.9c-1.6,0-3.2-0.3-4.7-0.9c-1.5-0.6-2.8-1.4-4-2.4c-1.2-1.1-2.1-2.3-2.8-3.8c-0.7-1.5-1.1-3.2-1.1-5.1
			c0-1.8,0.4-3.5,1.1-5c0.7-1.5,1.6-2.8,2.8-3.8c1.2-1,2.5-1.8,4-2.4c1.5-0.6,3.1-0.9,4.7-0.9c1.6,0,3.1,0.3,4.7,0.9
			c1.5,0.6,2.8,1.4,4,2.4c1.2,1,2.1,2.3,2.8,3.8C117.2,36.7,117.6,38.3,117.6,40.2z M111.9,40.2c0-1.1-0.2-2.1-0.6-2.9
			c-0.4-0.9-0.9-1.6-1.5-2.3c-0.6-0.6-1.4-1.1-2.2-1.5c-0.8-0.3-1.7-0.5-2.5-0.5c-0.9,0-1.7,0.2-2.5,0.5c-0.8,0.3-1.5,0.8-2.2,1.5
			c-0.6,0.6-1.1,1.4-1.5,2.3c-0.4,0.9-0.6,1.9-0.6,2.9s0.2,2.1,0.6,3c0.4,0.9,0.9,1.6,1.5,2.3c0.6,0.6,1.4,1.1,2.2,1.5
			c0.8,0.3,1.7,0.5,2.5,0.5c0.9,0,1.7-0.2,2.5-0.5c0.8-0.3,1.5-0.8,2.2-1.5c0.6-0.6,1.2-1.4,1.5-2.3
			C111.7,42.3,111.9,41.3,111.9,40.2z"/>
		<path class="st0" d="M140.2,47.4c-0.5,1-1.3,1.9-2.2,2.7c-0.9,0.7-2,1.3-3.2,1.7c-1.2,0.4-2.5,0.6-3.9,0.6s-2.7-0.2-3.9-0.6
			c-1.2-0.4-2.3-1-3.2-1.7c-0.9-0.7-1.6-1.6-2.1-2.7c-0.5-1-0.8-2.2-0.8-3.5V28.6h5.6v14.8c0,1.2,0.4,2.2,1.2,2.9
			c0.8,0.7,1.9,1.1,3.3,1.1c1.4,0,2.4-0.4,3.3-1.1c0.8-0.7,1.2-1.7,1.2-2.9V28.6h5.5v15.3C141,45.2,140.7,46.3,140.2,47.4z"/>
	</g>
</g>
<path class="st1" d="M89.2,9.9c0,2.2-1.8,4-4,4c-2.2,0-4-1.8-4-4s1.8-4,4-4C87.4,5.9,89.2,7.7,89.2,9.9z M103.6,2.9L103.6,2.9
	c-1.2-0.6-2.6-0.6-3.8,0c0,0,0,0,0,0c-0.1,0.1-0.2,0.1-0.3,0.2c0,0,0,0-0.1,0c-0.1,0.1-0.1,0.1-0.2,0.2c0,0-0.1,0.1-0.1,0.1
	c0,0-0.1,0.1-0.1,0.1c-0.1,0.1-0.1,0.1-0.2,0.2c0,0,0,0.1-0.1,0.1c-0.1,0.1-0.2,0.2-0.2,0.3c0,0,0,0,0,0c-0.1,0.2-0.2,0.3-0.3,0.5
	L85,27.5l-5.8-11c-1-1.9-3.5-2.7-5.4-1.6c-1.2,0.6-1.9,1.8-2.1,3.1c0,0,0,0.1,0,0.1c0,0.1,0,0.2,0,0.2c0,0,0,0.1,0,0.1
	c0,0,0,0,0,0.1c0,0,0,0.1,0,0.1c0,0.8,0.3,1.6,0.8,2.2l9,14.8l-6.2,10.8c0,0,0,0,0,0c-0.1,0.1-0.1,0.2-0.1,0.3c0,0,0,0,0,0.1
	c-0.2,0.5-0.3,1-0.3,1.6c0,2.1,1.7,3.9,3.7,4c0,0,0,0,0,0c0.1,0,0.2,0,0.2,0c0,0,0.1,0,0.1,0c0,0,0,0,0.1,0c0.1,0,0.2,0,0.3,0
	c0,0,0.1,0,0.1,0c0.1,0,0.2,0,0.3,0c0,0,0.1,0,0.1,0c0.1,0,0.2,0,0.2-0.1c1-0.3,1.8-1,2.3-1.9l23-41.8C106.3,6.4,105.6,4,103.6,2.9z
	"/>
<g>
	<path class="st0" d="M8.1,56.4v7.7H6.8v-3.4H3.2v3.4H1.9v-7.7h1.3v3.3h3.6v-3.3H8.1z"/>
	<path class="st0" d="M15.3,64.1L13.5,61h-1v3.1h-1.3v-7.7h2.7c0.6,0,1.1,0.1,1.5,0.3s0.7,0.5,0.9,0.8c0.2,0.3,0.3,0.7,0.3,1.2
		c0,0.5-0.1,1-0.4,1.4c-0.3,0.4-0.7,0.7-1.3,0.8l1.9,3.2H15.3z M12.5,60h1.4c0.5,0,0.8-0.1,1.1-0.4s0.4-0.6,0.4-1S15.2,58,15,57.8
		c-0.2-0.2-0.6-0.3-1.1-0.3h-1.4V60z"/>
	<path class="st0" d="M24.3,58.2c0.3-0.6,0.8-1.1,1.4-1.4c0.6-0.3,1.3-0.5,2-0.5c0.8,0,1.5,0.2,2.2,0.6c0.6,0.4,1.1,1,1.4,1.7h-1.5
		c-0.2-0.4-0.5-0.7-0.8-0.9c-0.4-0.2-0.8-0.3-1.2-0.3c-0.5,0-1,0.1-1.4,0.3c-0.4,0.2-0.7,0.6-0.9,1s-0.3,0.9-0.3,1.5
		s0.1,1.1,0.3,1.5c0.2,0.4,0.5,0.8,0.9,1c0.4,0.2,0.9,0.3,1.4,0.3c0.5,0,0.9-0.1,1.2-0.3c0.4-0.2,0.6-0.5,0.8-0.9h1.5
		c-0.3,0.7-0.7,1.3-1.4,1.7c-0.6,0.4-1.4,0.6-2.2,0.6c-0.7,0-1.4-0.2-2-0.5s-1.1-0.8-1.4-1.4c-0.3-0.6-0.5-1.3-0.5-2
		S24,58.8,24.3,58.2z"/>
	<path class="st0" d="M35.8,63.7c-0.6-0.3-1.1-0.8-1.4-1.4c-0.3-0.6-0.5-1.3-0.5-2s0.2-1.4,0.5-2s0.8-1.1,1.4-1.4
		c0.6-0.3,1.3-0.5,2-0.5c0.7,0,1.4,0.2,2,0.5c0.6,0.3,1.1,0.8,1.4,1.4c0.3,0.6,0.5,1.3,0.5,2s-0.2,1.4-0.5,2
		c-0.3,0.6-0.8,1.1-1.4,1.4s-1.3,0.5-2,0.5C37.1,64.2,36.4,64,35.8,63.7z M39.2,62.7c0.4-0.2,0.7-0.6,0.9-1c0.2-0.4,0.3-0.9,0.3-1.5
		s-0.1-1.1-0.3-1.5c-0.2-0.4-0.5-0.8-0.9-1c-0.4-0.2-0.9-0.3-1.4-0.3c-0.5,0-1,0.1-1.4,0.3c-0.4,0.2-0.7,0.6-0.9,1s-0.3,0.9-0.3,1.5
		s0.1,1.1,0.3,1.5s0.5,0.8,0.9,1c0.4,0.2,0.9,0.3,1.4,0.3C38.3,63.1,38.8,63,39.2,62.7z"/>
	<path class="st0" d="M50.8,64.1h-1.3l-3.8-5.7v5.7h-1.3v-7.7h1.3l3.8,5.7v-5.7h1.3V64.1z"/>
	<path class="st0" d="M55.1,63.9c-0.4-0.2-0.7-0.4-1-0.8c-0.2-0.3-0.4-0.7-0.4-1.2h1.3c0,0.3,0.2,0.6,0.4,0.8c0.2,0.2,0.6,0.3,1,0.3
		c0.4,0,0.8-0.1,1-0.3c0.2-0.2,0.4-0.5,0.4-0.8c0-0.3-0.1-0.5-0.2-0.6s-0.3-0.3-0.6-0.4c-0.2-0.1-0.5-0.2-0.9-0.3
		c-0.5-0.1-0.9-0.3-1.2-0.4c-0.3-0.1-0.6-0.3-0.8-0.6c-0.2-0.3-0.3-0.7-0.3-1.1c0-0.4,0.1-0.8,0.3-1.2c0.2-0.3,0.5-0.6,0.9-0.8
		s0.9-0.3,1.4-0.3c0.7,0,1.4,0.2,1.8,0.6s0.7,0.9,0.8,1.5h-1.4c0-0.3-0.2-0.5-0.4-0.7c-0.2-0.2-0.6-0.3-1-0.3
		c-0.4,0-0.7,0.1-0.9,0.3c-0.2,0.2-0.3,0.4-0.3,0.8c0,0.2,0.1,0.4,0.2,0.6c0.1,0.2,0.3,0.3,0.5,0.4c0.2,0.1,0.5,0.2,0.9,0.3
		c0.5,0.1,0.9,0.3,1.2,0.4s0.6,0.4,0.8,0.6s0.3,0.7,0.3,1.2c0,0.4-0.1,0.8-0.3,1.1c-0.2,0.3-0.5,0.6-0.9,0.8s-0.9,0.3-1.4,0.3
		C56,64.2,55.6,64.1,55.1,63.9z"/>
	<path class="st0" d="M63.5,56.4v4.9c0,0.6,0.2,1,0.5,1.3c0.3,0.3,0.7,0.4,1.3,0.4c0.6,0,1-0.1,1.3-0.4c0.3-0.3,0.5-0.7,0.5-1.3
		v-4.9h1.3v4.9c0,0.6-0.1,1.2-0.4,1.6s-0.6,0.8-1.1,1c-0.5,0.2-1,0.3-1.5,0.3s-1.1-0.1-1.5-0.3c-0.5-0.2-0.8-0.5-1.1-1
		s-0.4-1-0.4-1.6v-4.9H63.5z"/>
	<path class="st0" d="M72.7,63.1h2.6v1h-3.9v-7.7h1.3V63.1z"/>
	<path class="st0" d="M82.8,56.4v1h-2v6.6h-1.3v-6.6h-2.1v-1H82.8z"/>
	<path class="st0" d="M90.2,62.5H87l-0.6,1.6h-1.3l2.8-7.7h1.5l2.8,7.7h-1.3L90.2,62.5z M89.9,61.5l-1.2-3.6l-1.3,3.6H89.9z"/>
	<path class="st0" d="M101.2,64.1h-1.3l-3.8-5.7v5.7h-1.3v-7.7h1.3l3.8,5.7v-5.7h1.3V64.1z"/>
	<path class="st0" d="M104.5,58.2c0.3-0.6,0.8-1.1,1.4-1.4c0.6-0.3,1.3-0.5,2-0.5c0.8,0,1.5,0.2,2.2,0.6s1.1,1,1.4,1.7h-1.5
		c-0.2-0.4-0.5-0.7-0.8-0.9c-0.4-0.2-0.8-0.3-1.2-0.3c-0.5,0-1,0.1-1.4,0.3c-0.4,0.2-0.7,0.6-0.9,1s-0.3,0.9-0.3,1.5
		s0.1,1.1,0.3,1.5c0.2,0.4,0.5,0.8,0.9,1c0.4,0.2,0.9,0.3,1.4,0.3c0.5,0,0.9-0.1,1.2-0.3c0.4-0.2,0.6-0.5,0.8-0.9h1.5
		c-0.3,0.7-0.8,1.3-1.4,1.7s-1.4,0.6-2.2,0.6c-0.7,0-1.4-0.2-2-0.5s-1.1-0.8-1.4-1.4c-0.4-0.6-0.5-1.3-0.5-2S104.1,58.8,104.5,58.2z
		"/>
	<path class="st0" d="M120.1,56.4l-2.5,4.9v2.8h-1.3v-2.8l-2.6-4.9h1.4l1.8,3.8l1.8-3.8H120.1z"/>
</g>
</svg>
